<svg width="39" height="42" viewBox="0 0 39 42" fill="none" xmlns="http://www.w3.org/2000/svg">
<path d="M35.9576 23.6559C35.2723 23.6559 34.7012 24.227 34.7012 24.9123V30.2123L19.0525 39.2588L3.33533 30.2123V27.7451C3.95214 27.3567 4.38619 26.6714 4.38619 25.8718C4.38619 24.6611 3.40387 23.6787 2.19309 23.6787C0.982323 23.6787 0 24.6611 0 25.8718C0 26.58 0.342672 27.1968 0.845256 27.608V30.9434C0.845256 31.4003 1.09655 31.8115 1.48491 32.0399L18.1616 41.6347C18.39 41.886 18.7327 42.0002 19.0525 42.0002H19.0754C19.0982 42.0002 19.121 42.0002 19.1439 42.0002C19.4866 42.0002 19.8064 41.8631 20.0577 41.6118L36.6201 32.0171C37.0085 31.7886 37.2369 31.3774 37.2369 30.9205V24.9123C37.2141 24.227 36.643 23.6559 35.9576 23.6559Z" fill="black"/>
<path d="M1.43907 12.3704L10.7369 17.8075C10.8283 18.9269 11.7877 19.8178 12.93 19.8178C14.1407 19.8178 15.1231 18.8355 15.1231 17.6247C15.1231 16.414 14.1407 15.4316 12.93 15.4316C12.5873 15.4316 12.2675 15.5002 11.9933 15.6372L4.54596 11.2739L19.0295 2.70713L27.8019 7.73297C28.3959 8.07564 29.1726 7.87004 29.5153 7.27607C29.8579 6.68211 29.6523 5.90539 29.0584 5.56272L19.6463 0.171358C19.258 -0.057089 18.7782 -0.057089 18.3899 0.171358L1.43907 10.2002C1.05071 10.4286 0.822266 10.8399 0.822266 11.2739C0.822266 11.7308 1.05071 12.142 1.43907 12.3704Z" fill="black"/>
<path d="M35.9579 9.08112C34.8156 9.08112 33.879 9.94922 33.7648 11.0686L18.3902 20.0694C18.0019 20.2979 17.7734 20.7091 17.7734 21.1431V27.8138C17.7734 28.4991 18.3446 29.0703 19.0299 29.0703C19.7152 29.0703 20.2864 28.4991 20.2864 27.8138V21.8742L34.9755 13.2845C35.2725 13.4216 35.5923 13.513 35.9579 13.513C37.1686 13.513 38.1509 12.5307 38.1509 11.3199C38.1509 10.0634 37.1686 9.08112 35.9579 9.08112Z" fill="black"/>
</svg>
